<svg xmlns="http://www.w3.org/2000/svg" xmlns:xlink="http://www.w3.org/1999/xlink" width="400" zoomAndPan="magnify" viewBox="0 0 300 187.499995" height="250" preserveAspectRatio="xMidYMid meet" version="1.0"><path fill="#66cc00" d="M 60.070312 48.867188 C 76.035156 44.714844 90.597656 42 101.136719 39.46875 C 101.644531 39.347656 101.53125 38.59375 101.007812 38.625 C 87.292969 39.355469 46.273438 41.539062 46.273438 41.539062 C 22.691406 43.421875 18.371094 52.679688 23.492188 59.839844 L 32.761719 72.796875 C 33.03125 73.179688 33.632812 72.984375 33.636719 72.523438 C 33.722656 62.613281 39.726562 54.175781 60.078125 48.867188 Z M 60.070312 48.867188 " fill-opacity="1" fill-rule="nonzero"/><path fill="#66cc00" d="M 52.683594 100.84375 C 53.039062 101.367188 53.742188 101.1875 53.660156 100.496094 C 52.59375 93.789062 54.394531 76.183594 63.386719 67.507812 C 76.695312 54.660156 93.6875 49.601562 109.59375 41.132812 C 110.019531 40.902344 109.773438 40.253906 109.300781 40.371094 C 98.226562 43.144531 69.25 50.8125 59.480469 54.804688 C 48.125 59.445312 32.917969 73.664062 46.949219 93.289062 L 52.683594 100.851562 Z M 52.683594 100.84375 " fill-opacity="1" fill-rule="nonzero"/><path fill="#4b286d" d="M 157.347656 70.644531 L 157.347656 64.859375 L 136.71875 64.859375 L 136.71875 94.605469 L 157.347656 94.605469 L 157.347656 88.574219 L 145.078125 88.574219 L 145.078125 81.980469 L 155.285156 81.980469 L 155.285156 76.210938 L 145.078125 76.210938 L 145.078125 70.644531 Z M 157.347656 70.644531 " fill-opacity="1" fill-rule="nonzero"/><path fill="#4b286d" d="M 193.753906 88.742188 L 180.859375 88.742188 L 180.859375 64.859375 L 172.394531 64.859375 L 172.394531 94.605469 L 193.753906 94.605469 Z M 193.753906 88.742188 " fill-opacity="1" fill-rule="nonzero"/><path fill="#4b286d" d="M 261.871094 76.199219 C 256.164062 74.910156 254.171875 74.765625 254.171875 72.5 C 254.171875 70.394531 256.996094 69.734375 258.625 69.734375 C 261.265625 69.734375 264.367188 70.347656 267.519531 71.976562 L 269.824219 66.5 C 266.585938 64.722656 262.417969 63.996094 258.40625 63.996094 C 250.535156 63.996094 245.25 67.183594 245.035156 73.410156 C 244.808594 79.078125 249.421875 81.207031 253.667969 82.085938 C 257.757812 82.925781 261.90625 83.65625 261.996094 86.078125 C 262.078125 88.320312 260.058594 89.277344 256.253906 89.277344 C 252.734375 89.277344 249.453125 88.152344 246.105469 86.75 L 244.160156 92.695312 C 247.996094 94.332031 251.902344 95.230469 255.9375 95.230469 C 261.527344 95.230469 265.605469 94.367188 268.613281 91.542969 C 270.699219 89.609375 271.382812 87.273438 271.382812 85.042969 C 271.382812 80.34375 268.453125 77.691406 261.882812 76.210938 " fill-opacity="1" fill-rule="nonzero"/><path fill="#4b286d" d="M 124.722656 70.734375 L 124.722656 64.859375 L 98.761719 64.859375 L 98.761719 70.734375 L 107.535156 70.734375 L 107.535156 94.605469 L 115.941406 94.605469 L 115.941406 70.734375 Z M 124.722656 70.734375 " fill-opacity="1" fill-rule="nonzero"/><path fill="#4b286d" d="M 222.605469 64.859375 L 222.605469 83.757812 C 222.605469 85.238281 222.605469 85.648438 222.515625 86.226562 C 222.253906 88.027344 220.5 89.074219 217.707031 89.109375 C 215.644531 89.074219 214.128906 88.46875 213.425781 87.390625 C 213.070312 86.832031 212.902344 85.839844 212.902344 84.246094 L 212.902344 64.859375 L 204.128906 64.859375 L 204.128906 85.363281 C 204.128906 88.207031 204.503906 89.484375 205.792969 91.101562 C 207.910156 93.753906 212.035156 95.140625 217.730469 95.140625 L 218.039062 95.140625 C 225.648438 95.140625 229.578125 92.167969 230.714844 89.390625 C 231.285156 88.050781 231.332031 87.410156 231.332031 84.691406 L 231.332031 64.847656 L 222.617188 64.847656 " fill-opacity="1" fill-rule="nonzero"/><path fill="#4b286d" d="M 275.5625 67.742188 L 276.15625 67.742188 C 276.644531 67.742188 277.113281 67.71875 277.113281 67.148438 C 277.113281 66.671875 276.703125 66.589844 276.316406 66.589844 L 275.574219 66.589844 L 275.574219 67.742188 Z M 275.003906 66.136719 L 276.40625 66.136719 C 277.261719 66.136719 277.667969 66.476562 277.667969 67.171875 C 277.667969 67.820312 277.261719 68.09375 276.714844 68.152344 L 277.75 69.746094 L 277.144531 69.746094 L 276.167969 68.195312 L 275.574219 68.195312 L 275.574219 69.746094 L 275.015625 69.746094 L 275.015625 66.136719 Z M 276.210938 70.585938 C 277.648438 70.585938 278.753906 69.449219 278.753906 67.933594 C 278.753906 66.417969 277.648438 65.316406 276.210938 65.316406 C 274.777344 65.316406 273.660156 66.453125 273.660156 67.933594 C 273.660156 69.414062 274.765625 70.585938 276.210938 70.585938 M 276.210938 64.859375 C 277.898438 64.859375 279.308594 66.191406 279.308594 67.933594 C 279.308594 69.675781 277.898438 71.042969 276.210938 71.042969 C 274.527344 71.042969 273.089844 69.710938 273.089844 67.933594 C 273.089844 66.15625 274.515625 64.859375 276.210938 64.859375 " fill-opacity="1" fill-rule="nonzero"/><path fill="#4b286d" d="M 117.695312 141.722656 C 124.257812 141.722656 127.808594 137.714844 127.808594 130.773438 C 127.808594 123.828125 124.257812 119.832031 117.695312 119.832031 L 111.589844 119.832031 L 111.589844 141.722656 Z M 107.125 115.90625 L 117.742188 115.90625 C 127.058594 115.90625 132.492188 121.585938 132.492188 130.773438 C 132.492188 139.957031 127.058594 145.640625 117.742188 145.640625 L 107.125 145.640625 L 107.125 115.894531 Z M 107.125 115.90625 " fill-opacity="1" fill-rule="nonzero"/><path fill="#4b286d" d="M 136.171875 124.089844 L 140.351562 124.089844 L 140.351562 145.648438 L 136.171875 145.648438 Z M 135.714844 118.707031 C 135.714844 117.328125 136.84375 116.15625 138.265625 116.15625 C 139.691406 116.15625 140.820312 117.28125 140.820312 118.707031 C 140.820312 120.128906 139.691406 121.253906 138.265625 121.253906 C 136.84375 121.253906 135.714844 120.128906 135.714844 118.707031 " fill-opacity="1" fill-rule="nonzero"/><path fill="#4b286d" d="M 161.003906 134.746094 C 161.003906 129.941406 158.53125 127.1875 154.691406 127.1875 C 150.855469 127.1875 148.382812 130.113281 148.382812 134.746094 C 148.382812 139.378906 150.855469 142.304688 154.691406 142.304688 C 158.53125 142.304688 161.003906 139.546875 161.003906 134.746094 M 145.25 147.152344 L 149.429688 147.152344 C 149.761719 149.703125 151.652344 150.957031 154.820312 150.957031 C 158.746094 150.957031 160.878906 148.90625 160.878906 144.945312 L 160.878906 142.566406 C 159.328125 144.695312 156.992188 145.914062 153.941406 145.914062 C 147.960938 145.914062 144.03125 141.484375 144.03125 134.757812 C 144.03125 128.027344 147.914062 123.601562 153.894531 123.601562 C 157.074219 123.601562 159.5 124.933594 161.046875 127.152344 L 161.046875 124.101562 L 165.058594 124.101562 L 165.058594 144.863281 C 165.058594 150.5 161.675781 154.347656 154.773438 154.347656 C 148.917969 154.347656 145.660156 151.46875 145.238281 147.164062 Z M 145.25 147.152344 " fill-opacity="1" fill-rule="nonzero"/><path fill="#4b286d" d="M 169.785156 124.089844 L 173.964844 124.089844 L 173.964844 145.648438 L 169.785156 145.648438 Z M 169.328125 118.707031 C 169.328125 117.328125 170.457031 116.15625 171.882812 116.15625 C 173.304688 116.15625 174.433594 117.28125 174.433594 118.707031 C 174.433594 120.128906 173.304688 121.253906 171.882812 121.253906 C 170.457031 121.253906 169.328125 120.128906 169.328125 118.707031 " fill-opacity="1" fill-rule="nonzero"/><path fill="#4b286d" d="M 180.367188 140.847656 L 180.367188 127.515625 L 176.894531 127.515625 L 176.894531 124.089844 L 180.367188 124.089844 L 180.367188 117.910156 L 184.546875 117.910156 L 184.546875 124.089844 L 188.902344 124.089844 L 188.902344 127.515625 L 184.546875 127.515625 L 184.546875 140.472656 C 184.546875 141.722656 185.175781 142.316406 187.019531 142.316406 L 188.902344 142.316406 L 188.902344 145.660156 C 187.976562 145.742188 187.101562 145.789062 186.347656 145.789062 C 182.464844 145.789062 180.367188 144.457031 180.367188 140.859375 Z M 180.367188 140.847656 " fill-opacity="1" fill-rule="nonzero"/><path fill="#4b286d" d="M 199.1875 142.894531 C 202.238281 142.894531 205.371094 141.1875 205.371094 137.136719 L 205.371094 134.882812 C 204.746094 135.382812 203.867188 135.632812 202.695312 135.757812 L 199.6875 136.089844 C 196.214844 136.507812 195.175781 137.714844 195.175781 139.640625 C 195.175781 141.5625 196.476562 142.894531 199.1875 142.894531 M 205.578125 142.726562 C 204.117188 144.980469 201.691406 146.152344 198.546875 146.152344 C 193.910156 146.152344 190.859375 143.898438 190.859375 139.753906 C 190.859375 136.28125 192.945312 133.652344 198.96875 133.070312 L 202.148438 132.742188 C 204.230469 132.492188 205.371094 131.785156 205.371094 130.03125 C 205.371094 128.027344 204.324219 126.9375 200.941406 126.9375 C 197.558594 126.9375 196.132812 127.890625 195.929688 130.816406 L 191.792969 130.816406 C 192.042969 126.46875 194.46875 123.589844 200.953125 123.589844 C 207.433594 123.589844 209.484375 126.183594 209.484375 129.941406 L 209.484375 141.347656 C 209.484375 142.019531 209.8125 142.429688 210.65625 142.429688 L 211.828125 142.429688 L 211.828125 145.652344 C 211.203125 145.730469 210.453125 145.777344 209.78125 145.777344 C 207.101562 145.777344 205.894531 144.820312 205.601562 142.726562 Z M 205.578125 142.726562 " fill-opacity="1" fill-rule="nonzero"/><path fill="#4b286d" d="M 214.394531 140.847656 L 214.394531 115.90625 L 218.574219 115.90625 L 218.574219 140.472656 C 218.574219 141.722656 219.121094 142.316406 220.660156 142.316406 L 222.207031 142.316406 L 222.207031 145.660156 C 221.375 145.742188 220.53125 145.789062 219.871094 145.789062 C 216.316406 145.789062 214.394531 144.457031 214.394531 140.859375 Z M 214.394531 140.847656 " fill-opacity="1" fill-rule="nonzero"/></svg>