<svg xmlns="http://www.w3.org/2000/svg" xmlns:xlink="http://www.w3.org/1999/xlink" width="400" zoomAndPan="magnify" viewBox="0 0 300 187.499995" height="250" preserveAspectRatio="xMidYMid meet" version="1.0"><defs><clipPath id="dc3e71f13f"><path d="M 0.398438 0 L 299.601562 0 L 299.601562 187 L 0.398438 187 Z M 0.398438 0 " clip-rule="nonzero"/></clipPath><clipPath id="038e3b4d38"><path d="M 67.726562 80.464844 L 232.285156 80.464844 L 232.285156 106.644531 L 67.726562 106.644531 Z M 67.726562 80.464844 " clip-rule="nonzero"/></clipPath><clipPath id="824b9ea739"><path d="M 106.351562 85.054688 L 231.417969 85.054688 L 231.417969 101.710938 L 106.351562 101.710938 Z M 106.351562 85.054688 " clip-rule="nonzero"/></clipPath><clipPath id="d88e9203a6"><path d="M 68.605469 90.125 L 82.40625 90.125 L 82.40625 100.988281 L 68.605469 100.988281 Z M 68.605469 90.125 " clip-rule="nonzero"/></clipPath></defs><g clip-path="url(#dc3e71f13f)"><path fill="#ffffff" d="M 0.398438 0 L 299.601562 0 L 299.601562 187 L 0.398438 187 Z M 0.398438 0 " fill-opacity="1" fill-rule="nonzero"/><path fill="#ffffff" d="M 0.398438 0 L 299.601562 0 L 299.601562 187 L 0.398438 187 Z M 0.398438 0 " fill-opacity="1" fill-rule="nonzero"/></g><g clip-path="url(#038e3b4d38)"><path fill="#ffffff" d="M 41.339844 25.675781 L 258.429688 25.675781 L 258.429688 161.089844 L 41.339844 161.089844 Z M 41.339844 25.675781 " fill-opacity="1" fill-rule="nonzero"/><path fill="#ffffff" d="M 41.339844 25.675781 L 258.429688 25.675781 L 258.429688 161.089844 L 41.339844 161.089844 Z M 41.339844 25.675781 " fill-opacity="1" fill-rule="nonzero"/></g><g clip-path="url(#824b9ea739)"><path fill="#6c6d6d" d="M 159.175781 86.894531 L 162.5 86.894531 C 165.867188 86.894531 167.988281 89.136719 167.988281 92.289062 C 167.988281 95.441406 165.867188 97.679688 162.5 97.679688 L 159.175781 97.679688 Z M 162.5 96.355469 C 164.992188 96.355469 166.570312 94.859375 166.570312 92.289062 C 166.570312 89.71875 164.992188 88.222656 162.5 88.222656 L 160.589844 88.222656 L 160.589844 96.398438 L 162.5 96.398438 Z M 168.777344 93.988281 C 168.777344 91.875 170.234375 90.050781 172.394531 90.050781 C 174.59375 90.050781 176.007812 91.585938 176.007812 93.988281 C 176.007812 94.113281 176.007812 94.238281 176.007812 94.238281 L 170.148438 94.238281 C 170.230469 95.8125 171.351562 96.644531 172.515625 96.644531 C 173.34375 96.644531 174.140625 96.308594 174.554688 95.359375 L 175.800781 95.855469 C 175.34375 96.894531 174.261719 97.890625 172.558594 97.890625 C 170.273438 97.933594 168.777344 96.230469 168.777344 93.988281 Z M 172.351562 91.332031 C 171.3125 91.332031 170.523438 92.039062 170.230469 93.117188 L 174.511719 93.117188 C 174.511719 92.453125 173.933594 91.332031 172.351562 91.332031 Z M 176.507812 90.296875 L 178.003906 90.296875 L 180.167969 96.019531 L 180.210938 96.019531 L 182.414062 90.296875 L 183.910156 90.296875 L 180.875 97.679688 L 179.507812 97.679688 Z M 184.03125 93.988281 C 184.03125 91.875 185.488281 90.050781 187.648438 90.050781 C 189.847656 90.050781 191.265625 91.585938 191.265625 93.988281 C 191.265625 94.113281 191.265625 94.238281 191.265625 94.238281 L 185.40625 94.238281 C 185.488281 95.8125 186.609375 96.644531 187.773438 96.644531 C 188.605469 96.644531 189.394531 96.308594 189.8125 95.359375 L 191.058594 95.855469 C 190.601562 96.894531 189.519531 97.890625 187.816406 97.890625 C 185.53125 97.933594 184.03125 96.230469 184.03125 93.988281 Z M 187.648438 91.332031 C 186.609375 91.332031 185.820312 92.039062 185.53125 93.117188 L 189.808594 93.117188 C 189.765625 92.453125 189.230469 91.332031 187.648438 91.332031 Z M 192.429688 97.679688 L 192.429688 86.851562 L 193.84375 86.851562 L 193.84375 97.679688 Z M 202.574219 93.988281 C 202.574219 96.230469 200.992188 97.933594 198.746094 97.933594 C 196.5 97.933594 194.917969 96.230469 194.917969 93.988281 C 194.917969 91.75 196.5 90.050781 198.746094 90.050781 C 200.992188 90.050781 202.574219 91.75 202.574219 93.988281 Z M 201.15625 93.988281 C 201.15625 92.289062 199.996094 91.332031 198.75 91.332031 C 197.5 91.332031 196.335938 92.328125 196.335938 93.988281 C 196.335938 95.691406 197.5 96.644531 198.75 96.644531 C 199.996094 96.644531 201.15625 95.691406 201.15625 93.988281 Z M 205.027344 96.644531 L 204.984375 96.644531 L 205.027344 97.679688 L 205.027344 100.960938 L 203.617188 100.960938 L 203.617188 90.296875 L 204.945312 90.296875 L 204.945312 91.332031 L 204.984375 91.332031 C 205.402344 90.667969 206.3125 90.050781 207.519531 90.050781 C 209.390625 90.050781 211.050781 91.707031 211.050781 93.988281 C 211.050781 96.273438 209.390625 97.933594 207.519531 97.933594 C 206.355469 97.933594 205.441406 97.351562 205.027344 96.644531 Z M 209.679688 93.988281 C 209.679688 92.328125 208.558594 91.332031 207.3125 91.332031 C 206.066406 91.332031 204.945312 92.328125 204.945312 93.988281 C 204.945312 95.691406 206.066406 96.644531 207.3125 96.644531 C 208.558594 96.644531 209.679688 95.648438 209.679688 93.988281 Z M 211.839844 93.988281 C 211.839844 91.875 213.296875 90.050781 215.457031 90.050781 C 217.660156 90.050781 219.074219 91.585938 219.074219 93.988281 C 219.074219 94.113281 219.074219 94.238281 219.074219 94.238281 L 213.210938 94.238281 C 213.292969 95.8125 214.417969 96.644531 215.582031 96.644531 C 216.410156 96.644531 217.203125 96.308594 217.621094 95.359375 L 218.867188 95.855469 C 218.40625 96.894531 217.328125 97.890625 215.621094 97.890625 C 213.339844 97.933594 211.839844 96.230469 211.839844 93.988281 Z M 215.414062 91.332031 C 214.375 91.332031 213.585938 92.039062 213.292969 93.117188 L 217.574219 93.117188 C 217.578125 92.453125 217.039062 91.332031 215.414062 91.332031 Z M 220.238281 97.679688 L 220.238281 90.296875 L 221.566406 90.296875 L 221.566406 91.496094 L 221.609375 91.496094 C 221.902344 90.667969 222.980469 90.089844 223.773438 90.089844 C 224.230469 90.089844 224.519531 90.132812 224.8125 90.253906 L 224.269531 91.539062 C 224.0625 91.457031 223.816406 91.414062 223.523438 91.414062 C 222.566406 91.414062 221.613281 92.203125 221.613281 93.574219 L 221.613281 97.636719 L 220.242188 97.636719 L 220.242188 97.679688 Z M 225.226562 95.8125 L 226.472656 95.316406 C 226.847656 96.273438 227.597656 96.726562 228.464844 96.726562 C 229.339844 96.726562 229.960938 96.308594 229.960938 95.6875 C 229.960938 95.3125 229.757812 94.898438 228.964844 94.691406 L 227.46875 94.316406 C 226.800781 94.152344 225.472656 93.570312 225.472656 92.242188 C 225.472656 90.914062 226.882812 90.039062 228.421875 90.039062 C 229.714844 90.039062 230.835938 90.625 231.292969 91.78125 L 230.085938 92.28125 C 229.796875 91.578125 229.132812 91.285156 228.382812 91.285156 C 227.597656 91.285156 226.925781 91.617188 226.925781 92.242188 C 226.925781 92.695312 227.300781 92.945312 227.925781 93.113281 L 229.382812 93.445312 C 230.839844 93.78125 231.417969 94.691406 231.417969 95.605469 C 231.417969 96.929688 230.257812 97.929688 228.511719 97.929688 C 226.683594 97.933594 225.683594 96.894531 225.226562 95.8125 Z M 112.578125 97.933594 C 114.40625 97.933594 115.820312 97.308594 116.894531 96.191406 C 118.019531 95.070312 118.351562 93.492188 118.351562 92.246094 C 118.351562 91.875 118.3125 91.5 118.269531 91.207031 L 112.578125 91.207031 L 112.578125 92.910156 L 116.648438 92.910156 C 116.523438 93.863281 116.191406 94.570312 115.734375 95.027344 C 115.152344 95.605469 114.234375 96.273438 112.617188 96.273438 C 110.125 96.273438 108.167969 94.28125 108.167969 91.75 C 108.167969 89.261719 110.121094 87.226562 112.617188 87.226562 C 113.945312 87.226562 114.945312 87.765625 115.691406 88.429688 L 116.894531 87.226562 C 115.898438 86.269531 114.53125 85.527344 112.660156 85.527344 C 109.25 85.527344 106.382812 88.304688 106.382812 91.707031 C 106.300781 95.152344 109.167969 97.933594 112.578125 97.933594 Z M 123.007812 89.964844 C 120.804688 89.964844 119.019531 91.625 119.019531 93.949219 C 119.019531 96.230469 120.804688 97.933594 123.007812 97.933594 C 125.214844 97.933594 127 96.230469 127 93.949219 C 127 91.625 125.214844 89.964844 123.007812 89.964844 Z M 123.007812 96.355469 C 121.804688 96.355469 120.765625 95.359375 120.765625 93.949219 C 120.765625 92.496094 121.804688 91.542969 123.007812 91.542969 C 124.214844 91.542969 125.253906 92.539062 125.253906 93.949219 C 125.253906 95.359375 124.214844 96.355469 123.007812 96.355469 Z M 131.738281 89.964844 C 129.535156 89.964844 127.75 91.625 127.75 93.949219 C 127.75 96.230469 129.535156 97.933594 131.738281 97.933594 C 133.941406 97.933594 135.730469 96.230469 135.730469 93.949219 C 135.773438 91.625 133.984375 89.964844 131.738281 89.964844 Z M 131.738281 96.355469 C 130.535156 96.355469 129.496094 95.359375 129.496094 93.949219 C 129.496094 92.496094 130.535156 91.542969 131.738281 91.542969 C 132.945312 91.542969 133.984375 92.539062 133.984375 93.949219 C 134.027344 95.359375 132.984375 96.355469 131.738281 96.355469 Z M 142.507812 90.214844 L 142.507812 90.875 L 142.464844 90.875 C 142.089844 90.417969 141.300781 90.003906 140.34375 90.003906 C 138.351562 90.003906 136.519531 91.746094 136.519531 93.988281 C 136.519531 96.226562 138.34375 97.96875 140.34375 97.96875 C 141.300781 97.96875 142.046875 97.554688 142.464844 97.054688 L 142.507812 97.054688 L 142.507812 97.636719 C 142.507812 99.171875 141.675781 99.960938 140.386719 99.960938 C 139.304688 99.960938 138.640625 99.171875 138.390625 98.550781 L 136.851562 99.171875 C 137.3125 100.210938 138.472656 101.535156 140.386719 101.535156 C 142.464844 101.535156 144.171875 100.335938 144.171875 97.390625 L 144.171875 90.214844 Z M 140.46875 96.355469 C 139.265625 96.355469 138.222656 95.359375 138.222656 93.949219 C 138.222656 92.539062 139.222656 91.5 140.46875 91.5 C 141.671875 91.5 142.589844 92.539062 142.589844 93.949219 C 142.632812 95.359375 141.671875 96.355469 140.46875 96.355469 Z M 147.121094 85.980469 L 145.375 85.980469 L 145.375 97.722656 L 147.121094 97.722656 Z M 151.941406 96.355469 C 151.066406 96.355469 150.402344 95.9375 149.988281 95.152344 L 155.351562 92.953125 L 155.183594 92.496094 C 154.851562 91.621094 153.855469 89.964844 151.777344 89.964844 C 149.695312 89.964844 147.992188 91.585938 147.992188 93.949219 C 147.992188 96.191406 149.695312 97.933594 151.941406 97.933594 C 153.769531 97.933594 154.851562 96.8125 155.269531 96.148438 L 153.898438 95.234375 C 153.4375 95.9375 152.855469 96.355469 151.941406 96.355469 Z M 151.816406 91.496094 C 152.523438 91.496094 153.105469 91.832031 153.316406 92.324219 L 149.742188 93.824219 C 149.652344 92.289062 150.902344 91.496094 151.816406 91.496094 Z M 151.816406 91.496094 " fill-opacity="1" fill-rule="nonzero"/></g><path fill="#ea4335" d="M 71.878906 95.441406 L 81.234375 90.050781 C 82.0625 89.546875 82.355469 88.511719 81.855469 87.683594 L 81.277344 86.644531 C 80.777344 85.816406 79.738281 85.527344 78.90625 86.023438 L 69.554688 91.414062 C 68.722656 91.914062 68.429688 92.953125 68.929688 93.78125 L 69.511719 94.816406 C 69.96875 95.648438 71.050781 95.9375 71.878906 95.441406 Z M 71.878906 95.441406 " fill-opacity="1" fill-rule="nonzero"/><path fill="#fbbc04" d="M 88.296875 100.296875 L 97.652344 94.902344 C 98.480469 94.40625 98.773438 93.367188 98.273438 92.539062 L 97.695312 91.5 C 97.195312 90.675781 96.15625 90.378906 95.324219 90.878906 L 85.972656 96.273438 C 85.140625 96.769531 84.847656 97.808594 85.347656 98.636719 L 85.929688 99.675781 C 86.386719 100.5 87.46875 100.796875 88.296875 100.296875 Z M 88.296875 100.296875 " fill-opacity="1" fill-rule="nonzero"/><path fill="#0f9d58" d="M 95.367188 95.441406 L 86.015625 90.050781 C 85.1875 89.546875 84.894531 88.511719 85.394531 87.683594 L 85.976562 86.644531 C 86.472656 85.816406 87.511719 85.527344 88.34375 86.023438 L 97.695312 91.414062 C 98.527344 91.914062 98.820312 92.953125 98.320312 93.78125 L 97.738281 94.816406 C 97.28125 95.648438 96.199219 95.9375 95.367188 95.441406 Z M 95.367188 95.441406 " fill-opacity="1" fill-rule="nonzero"/><g clip-path="url(#d88e9203a6)"><path fill="#4285f4" d="M 78.824219 100.296875 L 69.472656 94.898438 C 68.640625 94.402344 68.347656 93.363281 68.847656 92.535156 L 69.429688 91.496094 C 69.925781 90.667969 70.96875 90.378906 71.796875 90.875 L 81.152344 96.269531 C 81.980469 96.765625 82.273438 97.804688 81.773438 98.632812 L 81.191406 99.671875 C 80.691406 100.5 79.65625 100.796875 78.824219 100.296875 Z M 78.824219 100.296875 " fill-opacity="1" fill-rule="nonzero"/></g></svg>